<svg width="37" height="37" viewBox="0 0 37 37" fill="none" xmlns="http://www.w3.org/2000/svg">
<path d="M14.1109 8.33737C16.0642 4.83471 17.0401 3.08337 18.5 3.08337C19.96 3.08337 20.9359 4.83471 22.8892 8.33737L23.3948 9.24387C23.9498 10.2398 24.2273 10.7377 24.659 11.0661C25.0907 11.3945 25.6302 11.5163 26.7094 11.7599L27.6899 11.9819C31.4824 12.8406 33.3771 13.2692 33.8288 14.7199C34.279 16.169 32.9871 17.6814 30.4017 20.7046L29.7326 21.4862C28.9988 22.345 28.6303 22.7751 28.4654 23.3054C28.3004 23.8373 28.3559 24.4108 28.4669 25.5562L28.5687 26.6C28.9587 30.6345 29.1545 32.651 27.9736 33.5467C26.7927 34.444 25.0167 33.6253 21.4677 31.9912L20.5474 31.5687C19.5391 31.1032 19.035 30.8719 18.5 30.8719C17.9651 30.8719 17.461 31.1032 16.4527 31.5687L15.5339 31.9912C11.9834 33.6253 10.2074 34.4424 9.02804 33.5482C7.84558 32.651 8.04137 30.6345 8.43141 26.6L8.53316 25.5578C8.64416 24.4108 8.69966 23.8373 8.53316 23.307C8.36974 22.7751 8.00129 22.345 7.26745 21.4878L6.59837 20.7046C4.013 17.683 2.72108 16.1706 3.17125 14.7199C3.62295 13.2692 5.5192 12.839 9.3117 11.9819L10.2922 11.7599C11.3698 11.5163 11.9079 11.3945 12.3411 11.0661C12.7727 10.7377 13.0502 10.2398 13.6052 9.24387L14.1109 8.33737Z" fill="#FEE900"/>
</svg>
