<svg width="16" height="12" viewBox="0 0 16 12" fill="none" xmlns="http://www.w3.org/2000/svg">
<path d="M15.3056 0.0175589C15.2693 0.0275723 15.2181 0.0463465 15.1918 0.0601145C15.1643 0.0738825 12.9012 1.58085 10.1592 3.40823C7.41852 5.23687 5.16918 6.73507 5.15917 6.73883C5.15042 6.74133 4.18142 6.02039 3.00486 5.13423C1.61199 4.08537 0.839287 3.51212 0.788023 3.48709C0.724257 3.45705 0.686747 3.44829 0.596723 3.44328C0.47044 3.43702 0.402922 3.45079 0.295394 3.50711C0.0478284 3.63603 -0.0659515 3.94644 0.0390761 4.20177C0.0553304 4.24182 1.00433 5.79385 2.14838 7.65252C3.29118 9.5112 4.32896 11.1984 4.45399 11.4012C4.60153 11.6427 4.7028 11.7929 4.74407 11.8355C4.92411 12.0182 5.20419 12.0508 5.433 11.9168C5.47176 11.8943 6.25571 11.0757 7.87239 9.36726C9.18398 7.98295 10.4643 6.63119 10.7194 6.36334C11.5021 5.53726 15.6544 1.15029 15.8182 0.97631C16.0058 0.7773 16.0495 0.543244 15.9433 0.315448C15.902 0.227834 15.782 0.103922 15.6982 0.0626176C15.5669 -0.0012153 15.4319 -0.0162349 15.3056 0.0175589Z" fill="#83DEAE"/>
</svg>
