<svg width="19" height="14" viewBox="0 0 19 14" fill="none" xmlns="http://www.w3.org/2000/svg">
<g clip-path="url(#clip0_2_217)">
<path d="M17.6219 0.422144C17.5792 0.433823 17.5187 0.455721 17.4878 0.47178C17.4554 0.487837 14.7882 2.2455 11.5566 4.37689C8.32652 6.50974 5.67555 8.25718 5.66376 8.26156C5.65344 8.26448 4.51142 7.42361 3.12478 6.39003C1.4832 5.16667 0.57253 4.49806 0.512113 4.46886C0.436961 4.43382 0.392753 4.4236 0.286655 4.41777C0.137823 4.41047 0.0582497 4.42653 -0.0684784 4.49222C-0.360248 4.64258 -0.494344 5.00463 -0.370563 5.30244C-0.351406 5.34915 0.767043 7.15937 2.11537 9.32726C3.46223 11.4951 4.6853 13.463 4.83266 13.6995C5.00654 13.9813 5.1259 14.1565 5.17453 14.2061C5.38673 14.4192 5.71681 14.4572 5.98647 14.301C6.03215 14.2747 6.95609 13.32 8.86143 11.3273C10.4072 9.71266 11.9162 8.13601 12.2168 7.82361C13.1392 6.8601 18.033 1.74331 18.2261 1.54039C18.4471 1.30828 18.4987 1.03528 18.3734 0.769589C18.3248 0.6674 18.1833 0.522873 18.0846 0.474699C17.9299 0.400246 17.7707 0.382728 17.6219 0.422144Z" fill="#83DEAE"/>
</g>
<defs>
<clipPath id="clip0_2_217">
<rect width="18.7739" height="13.9347" fill="white" transform="scale(1.00469)"/>
</clipPath>
</defs>
</svg>
